<svg xmlns="http://www.w3.org/2000/svg" width="190.327" height="50.45" viewBox="0 0 190.327 50.45"><g transform="translate(0.5 0.5)"><path d="M61.677,43.953V36.2h1.506v7.758A3.723,3.723,0,0,0,67.231,48a3.7,3.7,0,0,0,4.011-4.048V36.2h1.506v7.758c0,3.426-2.071,5.5-5.517,5.5C63.767,49.45,61.677,47.379,61.677,43.953Zm44,5.423-4.858-6.251-2.56,2.8v3.447H96.749V36.2h1.506v7.588l7.078-7.588h1.788l-5.215,5.724,5.612,7.455Zm26.631,0V44.912L127.2,36.2h1.561l4.276,6.873,4.216-6.873H138.8l-5.007,8.662v4.518Zm-19.184,0V36.2h8.944v1.449h-7.438v4.331h6.646v1.449h-6.646v4.518h7.682v1.431Zm-24.622,0-2.73-4.2c-.282.02-.582.037-.884.037h-3.5v4.161H79.875V36.2h5.007c3.294,0,5.2,1.618,5.2,4.423a4.128,4.128,0,0,1-2.957,4.273l3.087,4.48Zm-7.116-5.609h3.5c2.391,0,3.746-1.054,3.746-3.107,0-2-1.356-3.012-3.746-3.012h-3.5ZM50.5,49.375V37.646H46.21V36.2H56.32v1.449H52.009V49.375Zm1.52-24.458V16.476H52.5a27.332,27.332,0,0,0,1.587,3.089,13.16,13.16,0,0,0,1.824,2.415,7.612,7.612,0,0,0,2.125,1.572,5.656,5.656,0,0,0,2.5.556,5.6,5.6,0,0,0,2.178-.388,4.876,4.876,0,0,0,1.552-1,3.862,3.862,0,0,0,.929-1.38,4.33,4.33,0,0,0,.3-1.587,4.427,4.427,0,0,0-.388-1.925,4.378,4.378,0,0,0-1.149-1.451,8,8,0,0,0-1.94-1.164q-1.181-.522-2.734-1.065-1.284-.436-2.516-.91a8.962,8.962,0,0,1-2.194-1.2A5.77,5.77,0,0,1,53,10.231a5.431,5.431,0,0,1-.609-2.7A7.225,7.225,0,0,1,53,4.527a6.526,6.526,0,0,1,1.671-2.28A7.57,7.57,0,0,1,57.187.814,9.541,9.541,0,0,1,60.363.307,10.81,10.81,0,0,1,63.2.662a12.814,12.814,0,0,1,2.227.794L66.64.1h.406V7.632h-.472A15.981,15.981,0,0,0,63.518,2.6a5.081,5.081,0,0,0-3.7-1.654,5.193,5.193,0,0,0-1.672.271,4.055,4.055,0,0,0-1.4.811,3.977,3.977,0,0,0-.962,1.3A4.169,4.169,0,0,0,55.432,5.1a3.948,3.948,0,0,0,.406,1.856A4.251,4.251,0,0,0,57.02,8.342a8.175,8.175,0,0,0,1.907,1.081q1.131.472,2.582.946,1.216.4,2.4.878a8.5,8.5,0,0,1,2.128,1.215,5.872,5.872,0,0,1,1.537,1.824,5.669,5.669,0,0,1,.589,2.734,9.065,9.065,0,0,1-.439,2.765,6.98,6.98,0,0,1-1.4,2.5,7.133,7.133,0,0,1-2.48,1.806,8.916,8.916,0,0,1-3.716.695,10.991,10.991,0,0,1-3-.441,11.691,11.691,0,0,1-2.668-1.08l-2.024,1.654Zm42.925-.827a11.541,11.541,0,0,1-3.916-2.346,11.311,11.311,0,0,1-2.719-3.85,13.031,13.031,0,0,1-1.012-5.3,12.13,12.13,0,0,1,1.029-5.047A12.506,12.506,0,0,1,91.065,3.63,12.322,12.322,0,0,1,99.59.2a13.675,13.675,0,0,1,3.462.388,13.2,13.2,0,0,1,2.65,1L107.222,0h.37V7.8h-.472a14.636,14.636,0,0,0-3.361-5.164A6.4,6.4,0,0,0,99.288.845a6.552,6.552,0,0,0-2.77.624,6.32,6.32,0,0,0-2.4,2.026,11.2,11.2,0,0,0-1.689,3.629,19.733,19.733,0,0,0-.642,5.4,18.743,18.743,0,0,0,.677,5.4,11.032,11.032,0,0,0,1.773,3.629A6.791,6.791,0,0,0,96.721,23.6a6.678,6.678,0,0,0,2.835.641,6.908,6.908,0,0,0,4.591-1.418V16.443a2.082,2.082,0,0,0-.776-1.689,5.17,5.17,0,0,0-2.97-.708v-.439H110.63v.439a3.348,3.348,0,0,0-2.11.573A2.506,2.506,0,0,0,108,16.443v6.212a13.8,13.8,0,0,1-4,1.654,18.1,18.1,0,0,1-4.439.575A13.541,13.541,0,0,1,94.948,24.09Zm38.606.727L118.192,4.593h-.033V18.672a10.7,10.7,0,0,0,.185,2.143,3.6,3.6,0,0,0,.675,1.519,3.4,3.4,0,0,0,1.334,1,7.938,7.938,0,0,0,2.128.54v.438h-9.252v-.438A7.727,7.727,0,0,0,115.2,23.3a3.364,3.364,0,0,0,1.266-.979,3.766,3.766,0,0,0,.677-1.5,9.875,9.875,0,0,0,.2-2.143V5.1a4.483,4.483,0,0,0-.238-1.469,3.2,3.2,0,0,0-.743-1.217,3.747,3.747,0,0,0-1.281-.842,5.8,5.8,0,0,0-1.858-.388V.778h7.193l13.4,17.825h.035V6.381a8.435,8.435,0,0,0-.238-2.143,3.859,3.859,0,0,0-.758-1.519,3.612,3.612,0,0,0-1.4-.995,8.277,8.277,0,0,0-2.125-.54V.778h9.283v.406a7.509,7.509,0,0,0-1.956.574,3.122,3.122,0,0,0-1.217.979,3.734,3.734,0,0,0-.606,1.5,11.749,11.749,0,0,0-.17,2.143V24.817Zm50.067-.575a2.926,2.926,0,0,1-1.349-.758,3.014,3.014,0,0,1-.726-1.334,13.387,13.387,0,0,1-.355-1.958l-.337-3.107a9.657,9.657,0,0,0-.424-2.11,2.976,2.976,0,0,0-.86-1.316,3.262,3.262,0,0,0-1.519-.675,12.833,12.833,0,0,0-2.4-.185h-2.567v8.844a1.9,1.9,0,0,0,.71,1.62,5.383,5.383,0,0,0,2.835.609v.438H165.458v-.438a10.915,10.915,0,0,0,1.821-.185,3.021,3.021,0,0,0,1.116-.441,1.6,1.6,0,0,0,.574-.69,2.363,2.363,0,0,0,.17-.913V3.411a1.9,1.9,0,0,0-.743-1.588,5.474,5.474,0,0,0-2.937-.639V.778h10.635a19.123,19.123,0,0,1,4.421.439,9.081,9.081,0,0,1,2.972,1.215,4.815,4.815,0,0,1,1.671,1.824,4.912,4.912,0,0,1,.523,2.227,5.08,5.08,0,0,1-1.636,3.781q-1.64,1.588-5.521,2.161v.1a10.256,10.256,0,0,1,3.072.507,5.069,5.069,0,0,1,1.942,1.182,4.866,4.866,0,0,1,1.1,1.788,11.662,11.662,0,0,1,.54,2.331l.236,1.922a10.3,10.3,0,0,0,.4,1.791,2.555,2.555,0,0,0,.641,1.047,2.126,2.126,0,0,0,1.1.49,11.1,11.1,0,0,0,1.773.117v.406a13.58,13.58,0,0,1-1.755.287c-.586.057-1.16.084-1.722.084A8.468,8.468,0,0,1,183.621,24.242ZM173.088,12.156h2.835a8.886,8.886,0,0,0,2.752-.355,3.723,3.723,0,0,0,1.672-1.047,3.719,3.719,0,0,0,.827-1.722,11.538,11.538,0,0,0,.22-2.379,7.6,7.6,0,0,0-.289-2.178,3.81,3.81,0,0,0-.962-1.636,4.5,4.5,0,0,0-1.806-1.047,9.3,9.3,0,0,0-2.853-.371h-2.4ZM141.014,24.31v-.438a10.531,10.531,0,0,0,1.826-.185,3.019,3.019,0,0,0,1.111-.439,1.592,1.592,0,0,0,.576-.692,2.351,2.351,0,0,0,.167-.911V3.411a1.888,1.888,0,0,0-.743-1.586,5.437,5.437,0,0,0-2.937-.642V.778H160.6l.1,7.6-.474.068q-.741-1.79-1.433-3.122a8.969,8.969,0,0,0-1.552-2.2A5.615,5.615,0,0,0,155.3,1.843a7.125,7.125,0,0,0-2.6-.423h-4.05V11.786h1.821a7.042,7.042,0,0,0,1.857-.22,3.833,3.833,0,0,0,1.455-.743A4.253,4.253,0,0,0,154.872,9.4a10.681,10.681,0,0,0,.794-2.245h.441v9.891h-.441a10.288,10.288,0,0,0-.794-2.227,4.491,4.491,0,0,0-1.094-1.418,3.743,3.743,0,0,0-1.455-.761,7.143,7.143,0,0,0-1.857-.219h-1.821V23.669h3.982a9.4,9.4,0,0,0,3.039-.438,6.1,6.1,0,0,0,2.247-1.349,9.5,9.5,0,0,0,1.74-2.314,30.759,30.759,0,0,0,1.55-3.325l.474.033-.17,8.035Zm-68.971,0v-.438a11.367,11.367,0,0,0,1.889-.185,3.214,3.214,0,0,0,1.165-.439,1.455,1.455,0,0,0,.575-.692,2.622,2.622,0,0,0,.15-.911V3.411a2.643,2.643,0,0,0-.15-.911,1.38,1.38,0,0,0-.575-.675,3.678,3.678,0,0,0-1.165-.439,10.073,10.073,0,0,0-1.889-.2V.778H83.52v.406a10.073,10.073,0,0,0-1.89.2,3.678,3.678,0,0,0-1.165.439,1.38,1.38,0,0,0-.575.675,2.644,2.644,0,0,0-.15.911V21.645a2.623,2.623,0,0,0,.15.911,1.455,1.455,0,0,0,.575.692,3.214,3.214,0,0,0,1.165.439,11.367,11.367,0,0,0,1.89.185v.438Zm-45.205,0v-.438a10.477,10.477,0,0,0,1.823-.185,3,3,0,0,0,1.113-.439,1.59,1.59,0,0,0,.575-.692,2.343,2.343,0,0,0,.168-.911V3.411a1.888,1.888,0,0,0-.743-1.586,5.437,5.437,0,0,0-2.937-.642V.778H46.42l.1,7.6-.474.068q-.741-1.79-1.433-3.122a8.851,8.851,0,0,0-1.555-2.2,5.589,5.589,0,0,0-1.94-1.281,7.134,7.134,0,0,0-2.6-.423h-4.05V11.786H36.29a7.06,7.06,0,0,0,1.859-.22,3.831,3.831,0,0,0,1.451-.743A4.316,4.316,0,0,0,40.7,9.4,10.791,10.791,0,0,0,41.49,7.16h.439v9.891H41.49a10.392,10.392,0,0,0-.791-2.227,4.562,4.562,0,0,0-1.1-1.418,3.741,3.741,0,0,0-1.451-.761,7.162,7.162,0,0,0-1.859-.219H34.469V23.669h3.982a9.392,9.392,0,0,0,3.038-.438,6.1,6.1,0,0,0,2.247-1.349,9.552,9.552,0,0,0,1.738-2.314,29.887,29.887,0,0,0,1.552-3.325l.474.033-.17,8.035ZM0,24.31v-.438a10.474,10.474,0,0,0,1.822-.185,3.069,3.069,0,0,0,1.116-.439,1.62,1.62,0,0,0,.573-.692,2.354,2.354,0,0,0,.17-.913V3.411a1.894,1.894,0,0,0-.743-1.586A5.45,5.45,0,0,0,0,1.184V.778H10.567a16.212,16.212,0,0,1,5.519.86A11.312,11.312,0,0,1,20.07,4.02a9.782,9.782,0,0,1,2.414,3.6,12.282,12.282,0,0,1,.81,4.507,14.806,14.806,0,0,1-.708,4.541,10.72,10.72,0,0,1-2.212,3.9,10.954,10.954,0,0,1-3.832,2.718,13.714,13.714,0,0,1-5.57,1.03Zm7.629-.642H9.892a14.426,14.426,0,0,0,4.254-.54A5.514,5.514,0,0,0,16.9,21.29a8.271,8.271,0,0,0,1.486-3.477,27.222,27.222,0,0,0,.454-5.42,21.887,21.887,0,0,0-.556-5.4,8.2,8.2,0,0,0-1.656-3.376,5.627,5.627,0,0,0-2.75-1.722A14.24,14.24,0,0,0,9.993,1.42H7.629Z" fill="#fff" stroke="rgba(0,0,0,0)" stroke-miterlimit="10" stroke-width="1"/></g></svg>