<svg xmlns="http://www.w3.org/2000/svg" width="42.127" height="28.939" viewBox="0 0 42.127 28.939"><path d="M1.753,0h38.62a1.753,1.753,0,0,1,1.753,1.753V27.186a1.753,1.753,0,0,1-1.753,1.753H1.753A1.753,1.753,0,0,1,0,27.186V1.753A1.753,1.753,0,0,1,1.753,0Z" fill="#48181c"/><path d="M219.812,27.25l-2.582,2.334V44.362l2.582,2.678Z" transform="translate(-180.251 -22.611)" fill="#f9f4eb"/><path d="M172.52,47.841l7.611,7.9V40.96Z" transform="translate(-143.152 -33.987)" fill="#ea2427"/><path d="M57.987,15.07H24.05L26.8,17.554H55.241Z" transform="translate(-19.956 -12.505)" fill="#f9f4eb"/><path d="M68.626,29.66H40.18L54.4,42.523Z" transform="translate(-33.34 -24.611)" fill="#ea2427"/><path d="M163.125,102.3,152.71,91.5l-1.77,1.6,8.867,9.194Z" transform="translate(-125.245 -75.924)" fill="#f9f4eb"/><path d="M17.283,29.25l-2.213-2v3.032l2.213,2V44.745L23.7,38.085l1.561-1.621Z" transform="translate(-12.505 -22.611)" fill="#ea2427"/><path d="M15.07,45.06V61.817l2.213-2.295V47.06Z" transform="translate(-12.505 -37.389)" fill="#f9f4eb"/><path d="M27.131,141.66l-2.181,2.259H42.428l-2.179-2.259Z" transform="translate(-20.703 -117.545)" fill="#f9f4eb"/><path d="M63.723,100.047l-6.688-6.933-3.769,3.415a1.282,1.282,0,0,1-1.723,0L46,91.51l-1.621,1.68-6.613,6.857H50.888l2.181,2.261H65.906l-2.181-2.261Z" transform="translate(-31.34 -75.932)" fill="#ea2427"/></svg>