<svg xmlns="http://www.w3.org/2000/svg" xmlns:xlink="http://www.w3.org/1999/xlink" width="211.443" height="96.148" viewBox="0 0 211.443 96.148"><defs><clipPath id="a"><rect width="211.443" height="96.148" fill="#fff"/></clipPath></defs><path d="M0,382.645v22.09H5.175v-8.52h5.791v-4.292H5.175V386.81h11.36v-4.166Z" transform="translate(0 -315.56)" fill="#fff"/><g clip-path="url(#a)"><path d="M88.568,432.217a6.123,6.123,0,0,1-5.554,3.093c-4.229,0-6.027-2.556-6.027-6.154v-9.972h4.986V427.8c0,2.335.883,3.44,2.777,3.44s3.282-1.389,3.314-4.039v-8.016h4.954v15.684H88.947Z" transform="translate(-63.49 -345.693)" fill="#fff"/><path d="M184.369,417.254l.41,2.84a6.388,6.388,0,0,1,5.806-3.25c4.071,0,5.838,2.493,5.838,6.248v9.846h-4.986v-8.173c0-2.714-.947-3.6-2.777-3.6-2.02,0-3.408,1.357-3.44,4.071v7.7h-4.986V417.254Z" transform="translate(-148.636 -343.764)" fill="#fff"/><path d="M294.395,402.3a5.73,5.73,0,0,1-5.365,2.872c-4.039,0-6.627-2.777-6.627-8.11,0-5.554,2.745-8.426,6.911-8.426a5.376,5.376,0,0,1,4.607,2.146v-8.142h4.986v22.09h-4.26Zm-3.913-9.972c-2.114,0-3.25,1.357-3.25,4.607,0,3.061,1.073,4.513,3.282,4.513,2.02,0,3.471-1.42,3.471-4.544,0-3.282-1.483-4.576-3.5-4.576" transform="translate(-232.893 -315.56)" fill="#fff"/><path d="M389.284,378.145c1.83,0,2.872.789,2.872,2.588,0,1.736-1.041,2.556-2.872,2.556s-2.872-.82-2.872-2.556c0-1.8,1.041-2.588,2.872-2.588m2.493,22.879h-4.986V385.34h4.986Z" transform="translate(-318.668 -311.849)" fill="#fff"/><path d="M432.208,417.254l.41,2.84a6.389,6.389,0,0,1,5.806-3.25c4.071,0,5.838,2.493,5.838,6.248v9.846h-4.986v-8.173c0-2.714-.947-3.6-2.777-3.6-2.02,0-3.408,1.357-3.44,4.071v7.7h-4.986V417.254Z" transform="translate(-353.025 -343.764)" fill="#fff"/><path d="M546.142,432.307c0,5.207-3.692,7.605-8.8,7.605-3.093,0-5.9-.915-7.163-3.44l2.808-2.43a4.407,4.407,0,0,0,4.166,2.3c2.493,0,4.039-1.231,4.039-3.976v-2.241a5.173,5.173,0,0,1-4.923,2.619c-3.945,0-6.564-2.619-6.564-7.889,0-5.333,2.682-8.016,6.848-8.016a5.487,5.487,0,0,1,5.144,2.682l.41-2.272h4.039Zm-8.394-11.8c-2.146,0-3.282,1.389-3.282,4.292,0,2.966,1.136,4.323,3.282,4.323,2.083,0,3.471-1.42,3.471-4.355,0-2.9-1.452-4.26-3.471-4.26" transform="translate(-436.835 -343.764)" fill="#fff"/><path d="M864.969,417.244H869.1l.41,3.124a5.838,5.838,0,0,1,5.617-3.534l.032,4.733c-3.5-.284-5.175,1.767-5.207,5.144v6.217h-4.986Z" transform="translate(-713.324 -343.753)" fill="#fff"/><path d="M932.937,382.644h4.954l-.126,13.569,5.807-7.163h5.4L943,396.025l6.027,8.71H943.54l-3.755-5.491-1.925,2.114v3.377h-4.923Z" transform="translate(-769.376 -315.56)" fill="#fff"/><path d="M1020.269,425.206c0-5.27,2.9-8.362,8.016-8.362,5.239,0,7.384,3.471,7.384,7.921a11.136,11.136,0,0,1-.126,1.7H1025c.221,2.493,1.515,3.5,3.787,3.5a3.605,3.605,0,0,0,3.629-1.988l3,1.83c-1.294,2.43-3.755,3.566-7.006,3.566-4.986,0-8.142-2.619-8.142-8.173M1025,423.6h6.09c-.126-2.209-1.1-3.282-2.9-3.282-1.83,0-3,1.041-3.187,3.282" transform="translate(-841.397 -343.764)" fill="#fff"/><path d="M1112.7,434.932l-6.185-15.747h5.144l3.661,10.445,3.534-10.445h5.112l-7.29,18.587c-1.231,3.093-3.534,4.039-6.469,4.039a8.712,8.712,0,0,1-3.377-.6l.505-3.566a5.6,5.6,0,0,0,2.272.5,2.628,2.628,0,0,0,2.682-1.988Z" transform="translate(-912.522 -345.694)" fill="#fff"/><path d="M691.176,382.644V387h-6.753v17.735h-5.175V387h-6.753v-4.355Z" transform="translate(-554.593 -315.56)" fill="#fff"/><path d="M773.3,432.217a6.123,6.123,0,0,1-5.554,3.093c-4.229,0-6.027-2.556-6.027-6.154v-9.972h4.986V427.8c0,2.335.884,3.44,2.777,3.44s3.282-1.389,3.314-4.039v-8.016h4.954v15.684h-4.071Z" transform="translate(-628.177 -345.693)" fill="#fff"/><path d="M503.633,8.395V51.4h-53.67V12.743ZM458.417,43.432h5.175v-8.52H473.5V30.62h-9.909V25.508h11.36V21.343H458.417Zm19.1-22.09V25.7h6.753V43.432h5.175V25.7H496.2V21.343Zm-27.559-17V8.462l53.67-4.346V0Z" transform="translate(-371.076)" fill="#fff"/></g></svg>