<svg xmlns="http://www.w3.org/2000/svg" width="61.041" height="81.389" viewBox="0 0 61.041 81.389"><path d="M62.33,93.06a12,12,0,0,0-8.321,20.668V128.2a1.85,1.85,0,0,0,3.063,1.39l5.258-4.508,5.262,4.508a1.851,1.851,0,0,0,3.063-1.39V113.728A12,12,0,0,0,62.326,93.06Zm4.751,31.368-3.614-3.092a1.775,1.775,0,0,0-2.265,0l-3.614,3.092V116l.169.07a11.858,11.858,0,0,0,9.156,0l.173-.074v8.431ZM62.33,113.291a8.213,8.213,0,0,1-8.2-8.2,8.118,8.118,0,0,1,2.32-5.7,2.634,2.634,0,0,1,.25-.246q.132-.132.265-.243c.088-.077.184-.154.276-.228a3.017,3.017,0,0,1,.272-.213,8.935,8.935,0,0,1,.824-.529l.261-.14c.221-.118.449-.221.68-.316.074-.029.154-.059.228-.085a8.691,8.691,0,0,1,.864-.265c.092-.026.191-.044.29-.062a6.911,6.911,0,0,1,.827-.129,2.086,2.086,0,0,1,.213-.018c.206-.015.415-.026.625-.026s.419.011.625.026c.07,0,.143.011.213.018a6.8,6.8,0,0,1,.827.129c.1.018.2.04.29.063.217.055.434.114.64.188.059.018.118.04.173.059.14.048.276.1.415.162a1.852,1.852,0,0,1,.232.1,8.032,8.032,0,0,1,1.1.61,5.238,5.238,0,0,1,.566.419,3.125,3.125,0,0,1,.276.228,2.763,2.763,0,0,1,.265.243c.085.077.169.162.25.246a7.231,7.231,0,0,1,.9,1.11,3.038,3.038,0,0,1,.2.3c.063.1.129.206.184.313.114.206.221.423.32.64a2.953,2.953,0,0,1,.143.335,8,8,0,0,1,.577,3,8.213,8.213,0,0,1-8.2,8.2Z" transform="translate(-31.811 -58.842)" fill="#48181c"/><path d="M79.594,155.44v8.431l-3.614-3.092a1.775,1.775,0,0,0-2.265,0L70.1,163.871v-8.424l.169.07a11.858,11.858,0,0,0,9.156,0l.173-.074Z" transform="translate(-44.325 -98.285)" fill="#f9f4eb"/><path d="M59.192,0H1.85A2.018,2.018,0,0,0,0,1.85V79.54a1.921,1.921,0,0,0,1.85,1.85H59.192a1.924,1.924,0,0,0,1.85-1.85V1.85A1.924,1.924,0,0,0,59.192,0ZM57.463,77.812H3.578V3.578H57.467V77.815Z" transform="translate(0)" fill="#48181c"/><path d="M65.929,27.089a1.7,1.7,0,0,1,.029.313A1.731,1.731,0,0,1,64.23,29.13h-3.9A63.513,63.513,0,0,0,50.942,34H64.23a1.728,1.728,0,1,1,0,3.456H45.993a65.516,65.516,0,0,0-5.615,4.868H64.227a1.728,1.728,0,0,1,0,3.456H37.091A63.454,63.454,0,0,0,21.14,87.939q0,3.127.3,6.185H70.827V25.78q-2.493.563-4.9,1.309ZM52.21,71.187V85.663a1.851,1.851,0,0,1-3.063,1.39l-5.262-4.508-5.258,4.508a1.85,1.85,0,0,1-3.063-1.39V71.187a12.024,12.024,0,1,1,16.649,0Z" transform="translate(-13.367 -16.301)" fill="#ea2427"/><path d="M65.265,111.57c-.118.14-.228.287-.335.434C65.037,111.857,65.147,111.71,65.265,111.57Z" transform="translate(-41.056 -70.546)" fill="#fff"/><path d="M64.848,112.76a.709.709,0,0,1-.048.063A.707.707,0,0,1,64.848,112.76Z" transform="translate(-40.973 -71.299)" fill="#fff"/><path d="M66.27,110.26c-.151.154-.29.316-.43.482C65.976,110.576,66.119,110.414,66.27,110.26Z" transform="translate(-41.631 -69.718)" fill="#fff"/><path d="M77.1,117.651a8.2,8.2,0,1,1-16.4,0,8.091,8.091,0,0,1,1.511-4.721,8.2,8.2,0,0,0-1.4,3.489,8.187,8.187,0,0,0,16.193,0,7.92,7.92,0,0,0-.474-1.772A8,8,0,0,1,77.1,117.651Z" transform="translate(-38.381 -71.406)" fill="#ea2427"/><path d="M67.109,72.488a1.731,1.731,0,0,1-1.728,1.728H24.688a1.728,1.728,0,1,1,0-3.456H65.381A1.731,1.731,0,0,1,67.109,72.488Z" transform="translate(-14.518 -44.742)" fill="#48181c"/><path d="M67.109,49.858a1.733,1.733,0,0,1-1.728,1.728H24.688a1.728,1.728,0,1,1,0-3.456H65.381A1.731,1.731,0,0,1,67.109,49.858Z" transform="translate(-14.518 -30.433)" fill="#48181c"/><path d="M67.109,27.208a1.731,1.731,0,0,1-1.728,1.728H24.688a1.728,1.728,0,0,1,0-3.456H65.381a1.421,1.421,0,0,1,.176.011c.044,0,.088.011.129.018a.793.793,0,0,1,.1.018.438.438,0,0,1,.1.026,1.448,1.448,0,0,1,.232.092.91.91,0,0,1,.132.07,1.9,1.9,0,0,1,.243.169c.04.033.074.07.11.1s.092.1.14.154a.83.83,0,0,1,.074.1,2.163,2.163,0,0,1,.129.221c.018.044.04.085.055.129s.04.11.055.169.018.088.029.132a1.7,1.7,0,0,1,.029.313Z" transform="translate(-14.518 -16.111)" fill="#48181c"/><path d="M63.619,9.73v5.905q-2.493.563-4.9,1.309c-.011-.044-.018-.088-.029-.132a1.3,1.3,0,0,0-.055-.169.968.968,0,0,0-.055-.129,1.444,1.444,0,0,0-.129-.221c-.026-.033-.048-.07-.074-.1a1.827,1.827,0,0,0-.14-.154,1.008,1.008,0,0,0-.11-.1,2.364,2.364,0,0,0-.243-.169c-.044-.026-.085-.048-.132-.07a.982.982,0,0,0-.232-.092.783.783,0,0,0-.1-.026.4.4,0,0,0-.1-.018.723.723,0,0,0-.129-.018c-.059,0-.118-.011-.176-.011H16.323a1.728,1.728,0,0,0,0,3.456H53.111a63.513,63.513,0,0,0-9.384,4.872h-27.4a1.728,1.728,0,0,0,0,3.456H38.782a65.517,65.517,0,0,0-5.615,4.868H16.323a1.728,1.728,0,1,0,0,3.456H29.883A63.454,63.454,0,0,0,13.933,77.794q0,3.127.3,6.185H9.73V9.73Z" transform="translate(-6.152 -6.152)" fill="#f9f4eb"/><path d="M77.183,110.428a8.187,8.187,0,0,1-16.193,0A8.219,8.219,0,0,1,63.2,105.96c.085-.085.169-.169.25-.246s.176-.162.265-.243.184-.154.276-.228.176-.143.272-.213a8.939,8.939,0,0,1,.824-.529l.261-.14c.221-.118.449-.221.68-.316.074-.029.154-.059.228-.085a8.689,8.689,0,0,1,.864-.265c.092-.026.191-.044.29-.063a6.913,6.913,0,0,1,.827-.129,2.086,2.086,0,0,1,.213-.018c.206-.015.415-.026.625-.026s.419.011.625.026c.07,0,.143.011.213.018a6.8,6.8,0,0,1,.827.129c.1.018.2.04.29.063.217.055.434.114.64.188.059.018.118.04.173.059.14.048.276.1.415.162a1.853,1.853,0,0,1,.232.1,8.031,8.031,0,0,1,1.1.61c.2.132.386.272.566.419.092.074.188.147.276.228s.176.158.265.243.169.162.25.246a8.348,8.348,0,0,1,.9,1.11c.07.1.132.2.2.3s.125.206.184.313c.114.206.221.423.32.64.048.114.1.221.143.335a8.334,8.334,0,0,1,.474,1.772Z" transform="translate(-38.564 -65.418)" fill="#f9f4eb"/></svg>