<svg xmlns="http://www.w3.org/2000/svg" width="76.01" height="84.349" viewBox="0 0 76.01 84.349"><path d="M44.234,22.126c8.045,0,11.027,3.841,11.3,9.491H65.52C65.2,23.843,60.458,16.7,51.013,14.4V4.5H37.455v9.762a26.79,26.79,0,0,0-6.689,2.44l6.644,6.644A17.722,17.722,0,0,1,44.234,22.126ZM11.83,9.291,6.09,15.03,21.637,30.577c0,9.4,7.05,14.507,17.671,17.671L55.171,64.111c-1.537,2.169-4.745,4.113-10.937,4.113-9.31,0-12.971-4.158-13.468-9.491H20.823c.542,9.9,7.954,15.456,16.631,17.309v9.807H51.013V76.132a22.61,22.61,0,0,0,11.073-5.062L72.118,81.1l5.74-5.74Z" transform="translate(-3.969 -3)" fill="#ea2328" stroke="#48181c" stroke-width="3"/></svg>