<svg xmlns="http://www.w3.org/2000/svg" width="50.288" height="86.463" viewBox="0 0 50.288 86.463"><path d="M34.89,41.131C24.364,38.4,20.979,35.567,20.979,31.162c0-5.054,4.683-8.578,12.52-8.578,8.254,0,11.314,3.941,11.592,9.737H55.338c-.325-7.975-5.193-15.3-14.884-17.666V4.5H26.544V14.516c-9,1.947-16.229,7.79-16.229,16.739,0,10.711,8.856,16.044,21.793,19.15C43.7,53.187,46.018,57.267,46.018,61.58c0,3.2-2.272,8.3-12.52,8.3-9.552,0-13.308-4.266-13.818-9.737H9.48C10.036,70.3,17.641,76,26.544,77.9V87.963H40.454V77.994c9.042-1.716,16.229-6.955,16.229-16.461C56.683,48.365,45.416,43.867,34.89,41.131Z" transform="translate(-7.896 -3)" fill="#ea2328" stroke="#48181c" stroke-width="3"/></svg>