<svg xmlns="http://www.w3.org/2000/svg" width="166.287" height="63.777" viewBox="0 0 166.287 63.777"><g transform="translate(0.5 0.5)"><path d="M26.048,50.892V34.914h7V50.892c0,3.738,2.4,6.022,5.746,6.022,3.306,0,5.548-2.284,5.548-6.022V34.914h6.966V50.892c0,7.281-4.84,11.885-12.553,11.885C31.007,62.777,26.048,58.173,26.048,50.892ZM8.225,62.463V40.543H0V34.875H23.534v5.667h-8.3v21.92Zm94.557,0L95.5,51.64l-3.66,4.053v6.769h-7V34.915h7V46.84l10.546-11.925H110.5L100.262,46.328l10.9,16.134Zm45.21,0v-8.7L137.8,34.914h7.005l6.65,12,6.491-12h7.005l-10,18.654v8.893Zm-33.763,0V34.914h21.565v5.51h-14.56V45.9h13.144V51.4H121.234v5.548h14.994v5.51Zm-41.274,0L68.86,54.711H63.352v7.751H56.347V34.916H68.666c7.279,0,11.448,3.462,11.448,9.6,0,4.212-1.768,7.241-5,8.855L80.9,62.461ZM63.352,49.2h5.314c3.028,0,4.8-1.535,4.8-4.448,0-2.871-1.771-4.329-4.8-4.329H63.352ZM90.974,19.126c0-6.3,4.053-10.586,9.956-10.586a8.279,8.279,0,0,1,7.438,3.817V.471h4.527v29.2h-4.527V26.09a8.112,8.112,0,0,1-7.358,3.779C94.988,29.869,90.974,25.5,90.974,19.126Zm4.525.157c.04,3.976,2.637,6.807,6.454,6.807,3.777,0,6.415-2.831,6.415-6.807,0-4.053-2.637-6.886-6.415-6.886S95.539,15.27,95.5,19.283Zm21.327-.04c0-6.338,4.368-10.626,10.586-10.666,7.358,0,10.35,4.8,9.8,12.357H121.391a6.375,6.375,0,0,0,6.493,5.235,8.14,8.14,0,0,0,5.9-2.441l2.4,2.558a11.4,11.4,0,0,1-8.659,3.541C121.075,29.827,116.826,25.539,116.826,19.243Zm4.487-1.614h11.962c-.157-3.385-2.4-5.431-5.824-5.431A5.956,5.956,0,0,0,121.313,17.629Zm-58.59,9.287,1.612-3.228a11.409,11.409,0,0,0,7.005,2.6c1.93,0,3.425-.668,3.425-2.242,0-4.289-11.019-1.89-10.979-9.445,0-4.251,3.7-6.061,7.711-6.061a13.234,13.234,0,0,1,7.321,2.126l-1.654,3.345a12.288,12.288,0,0,0-6.02-1.85c-1.771,0-3.07.591-3.07,2.086,0,3.857,11.136,1.771,11.1,9.367,0,4.289-3.819,6.216-8.028,6.216A12.955,12.955,0,0,1,62.724,26.916ZM29.512,29.673V2.125h4.644V29.673Zm53.238,0V8.736h4.485V29.67Zm-27.109,0V17.9c0-3.149-1.89-5.076-5.038-5.076-3.462.04-5.627,2.439-5.942,5.707V29.67H40.135V8.736H44.66v4.013c1.5-2.911,4.172-4.172,7.713-4.172,4.88,0,7.793,3.069,7.793,8.068V29.67ZM82.357,2.754a2.639,2.639,0,1,1,5.272,0,2.637,2.637,0,1,1-5.272,0Z" fill="#fff" stroke="rgba(0,0,0,0)" stroke-miterlimit="10" stroke-width="1"/></g></svg>