<svg xmlns="http://www.w3.org/2000/svg" width="153" height="153" viewBox="0 0 153 153"><g transform="translate(1989.003 2316.836) rotate(180)"><path d="M54.094,0a54.094,54.094,0,1,0,54.094,54.094A54.087,54.087,0,0,0,54.094,0Z" transform="translate(1912.503 2163.836) rotate(45)" fill="#141140"/><path d="M79.874,42.737A42.724,42.724,0,0,0,0,21.624,42.708,42.708,0,0,1,68.676,55.559a42.349,42.349,0,0,1-5.61,21.113,42.669,42.669,0,0,0,16.8-33.935Z" transform="translate(1916.463 2183.856) rotate(45)" fill="#ea2428"/><path d="M31.55,0A42.5,42.5,0,0,0,5.61,8.8,42.7,42.7,0,0,0,68.676,63.849,42.693,42.693,0,0,0,31.55,0Z" transform="translate(1903.429 2188.955) rotate(45)" fill="#f9f4eb"/><path d="M56.013,0,20.965,4.872l9.211,9.2L0,44.247,11.755,56.013,41.93,25.837l9.21,9.2Z" transform="translate(1909.95 2201.676) rotate(45)" fill="#141140" fill-rule="evenodd"/></g></svg>