<svg xmlns="http://www.w3.org/2000/svg" width="40.004" height="40.004" viewBox="0 0 40.004 40.004"><path d="M20,0A20,20,0,1,1,0,20,20,20,0,0,1,20,0Z" fill="#48181c"/><path d="M75.67,160.144a8.741,8.741,0,0,1,8.425,6.627,17.753,17.753,0,0,0,1.811-1.158,8.747,8.747,0,0,0-8.534-7.114h-3.49a8.676,8.676,0,0,0-6.8,3.328,8.593,8.593,0,0,1,5.1-1.684Z" transform="translate(-55.661 -131.518)" fill="#f9f4eb"/><path d="M67.274,176.985a17.262,17.262,0,0,0,8.433-2.2,8.741,8.741,0,0,0-8.425-6.627h-3.49a8.594,8.594,0,0,0-5.1,1.684,8.749,8.749,0,0,0-1.723,3.742,17.333,17.333,0,0,0,10.306,3.4Z" transform="translate(-47.272 -139.534)" fill="#ea2427"/><path d="M99.723,81.735a5.233,5.233,0,0,0-9.913-2.344,5.231,5.231,0,0,1,7.994,6.39,5.221,5.221,0,0,0,1.919-4.046Z" transform="translate(-74.522 -63.477)" fill="#f9f4eb"/><path d="M90.413,86.5A5.207,5.207,0,0,0,87.1,87.688a5.231,5.231,0,0,0,7.994,6.39A5.231,5.231,0,0,0,90.413,86.5Z" transform="translate(-71.808 -71.775)" fill="#ea2427"/><path d="M49.9,32.449A17.449,17.449,0,1,0,19.252,43.83a12.09,12.09,0,0,1,.788-1.663,15.632,15.632,0,1,1,24.777.053,12.181,12.181,0,0,1,.78,1.667,17.36,17.36,0,0,0,4.3-11.438Z" transform="translate(-12.447 -12.447)" fill="#f9f4eb"/><path d="M41.311,27.16a15.6,15.6,0,0,0-12.41,25.1,12.368,12.368,0,0,1,6.152-5.366,8.723,8.723,0,1,1,12.446,0,12.385,12.385,0,0,1,6.178,5.418A15.6,15.6,0,0,0,41.309,27.16Z" transform="translate(-21.308 -22.537)" fill="#ea2427"/></svg>