<svg xmlns="http://www.w3.org/2000/svg" width="40.002" height="40.004" viewBox="0 0 40.002 40.004"><path d="M30.1,40c-.085,0-8.632-.123-19.389-10.7l-.014-.014C.123,18.538,0,9.991,0,9.906c0-.363.094-.849,1.207-2.436.638-.907,1.483-1.993,2.378-3.056C7.308,0,8.353,0,8.8,0a2.791,2.791,0,0,1,2.114,1.209,50.465,50.465,0,0,1,3.137,4.785c2.482,4.2,2.354,4.93,2.278,5.367-.17.969-.866,1.553-2.254,2.715l-.027.022a14.819,14.819,0,0,0-1.273,1.129,13.544,13.544,0,0,0,.943,2.382l.01.02a18.809,18.809,0,0,0,8.646,8.648l.02.01a13.285,13.285,0,0,0,2.382.943A14.787,14.787,0,0,0,25.9,25.957l.02-.026c1.163-1.386,1.745-2.082,2.712-2.254.412-.071,1.171-.206,5.369,2.274a49.992,49.992,0,0,1,4.783,3.136h0A2.783,2.783,0,0,1,40,31.2c0,.446,0,1.491-4.414,5.214-1.062.9-2.147,1.74-3.056,2.378C30.946,39.909,30.459,40,30.1,40Z" fill="#48181c"/><path d="M47.153,23.537c.077-.063.152-.128.23-.189a11.829,11.829,0,0,0,1.461-1.341c-.276-1.318-3.885-7.175-4.906-8.4a2.437,2.437,0,0,0-.373-.38,11.038,11.038,0,0,0-1.724,1.537c.058.06.128.134.209.232a55.764,55.764,0,0,1,5.105,8.539Z" transform="translate(-34.718 -10.978)" fill="#f9f4eb"/><path d="M85.746,101.911c-1.219-1.021-7.07-4.629-8.4-4.9a12.107,12.107,0,0,0-1.34,1.461,16.818,16.818,0,0,1-1.786,1.932l-.436.4-.575-.14a15.665,15.665,0,0,1-3.439-1.273,21.035,21.035,0,0,1-9.652-9.655,15.72,15.72,0,0,1-1.009-2.484c-.1-.315-.187-.635-.264-.955l-.053-.221-.085-.354a3.425,3.425,0,0,0-.342,2.324l.089.369.056.232a16.261,16.261,0,0,0,1.326,3.582A21.925,21.925,0,0,0,69.9,102.285a16.293,16.293,0,0,0,3.582,1.326l.6.145.453-.42a17.63,17.63,0,0,0,1.861-2.012,12.657,12.657,0,0,1,1.4-1.522c1.042.216,4.773,2.412,7.085,3.932a9.408,9.408,0,0,0,1.258-1.449,2.618,2.618,0,0,0-.385-.376Z" transform="translate(-48.38 -71.128)" fill="#f9f4eb"/><path d="M40.237,47.146a12.655,12.655,0,0,0-1.4,1.522,17.787,17.787,0,0,1-1.861,2.012l-.453.42-.6-.145a16.261,16.261,0,0,1-3.582-1.326A21.918,21.918,0,0,1,22.29,39.571a16.325,16.325,0,0,1-1.326-3.582l-.056-.232-.089-.369a3.423,3.423,0,0,1,.342-2.324l.4-.436c.249-.269.509-.529.776-.781q.449-.424.928-.817a55.764,55.764,0,0,0-5.105-8.539c-.082-.1-.15-.172-.209-.232-.526.541-1.151,1.227-1.866,2.077a26.87,26.87,0,0,0-3.037,4.15c.01.148.037.443.109.866.4,2.393,2.16,8.939,9.94,16.855,9.291,9.129,16.7,9.974,17.723,10.047a26.862,26.862,0,0,0,4.15-3.037c.734-.618,1.345-1.168,1.847-1.646.184-.175.352-.339.507-.494-2.312-1.52-6.041-3.716-7.085-3.932Z" transform="translate(-10.828 -18.471)" fill="#ea2427"/></svg>