<svg xmlns="http://www.w3.org/2000/svg" xmlns:xlink="http://www.w3.org/1999/xlink" width="183.517" height="68.115" viewBox="0 0 183.517 68.115"><defs><clipPath id="a"><rect width="183.517" height="68.115" fill="#fff"/></clipPath></defs><g transform="translate(0 0)"><g clip-path="url(#a)"><path d="M42.961,4.372c0,2.724-1.971,4.372-5.232,4.372h-3.1v3.8H32.837V0h4.891c3.262,0,5.232,1.649,5.232,4.371m-1.792,0c0-1.791-1.2-2.813-3.494-2.813H34.629V7.186h3.047c2.293,0,3.494-1.021,3.494-2.813" transform="translate(-16.419 -0.001)" fill="#fff"/><path d="M61.477,5.913V7.58a3.025,3.025,0,0,0-.394-.018c-1.846,0-2.993,1.129-2.993,3.207V15.5H56.37V6h1.649V7.6a3.626,3.626,0,0,1,3.458-1.684" transform="translate(-28.185 -2.957)" fill="#fff"/><path d="M67.6,10.751a4.938,4.938,0,0,1,9.873,0,4.937,4.937,0,0,1-9.873,0m8.135,0a3.2,3.2,0,1,0-6.4,0,3.2,3.2,0,1,0,6.4,0" transform="translate(-33.799 -2.957)" fill="#fff"/><path d="M100.751,10.751a4.614,4.614,0,0,1-4.8,4.856,4.055,4.055,0,0,1-3.314-1.541v4.909h-1.72V6h1.649V7.508a4.043,4.043,0,0,1,3.386-1.595,4.609,4.609,0,0,1,4.8,4.838m-1.738,0a3.2,3.2,0,1,0-6.4,0,3.2,3.2,0,1,0,6.4,0" transform="translate(-45.457 -2.957)" fill="#fff"/><path d="M122.2,11.324h-7.705a3.216,3.216,0,0,0,3.441,2.777,3.546,3.546,0,0,0,2.742-1.147l.949,1.111a5.176,5.176,0,0,1-8.852-3.315,4.651,4.651,0,0,1,4.766-4.838,4.579,4.579,0,0,1,4.695,4.891c0,.143-.018.358-.036.52m-7.705-1.236h6.092a3.065,3.065,0,0,0-6.092,0" transform="translate(-56.387 -2.957)" fill="#fff"/><path d="M140.3,5.913V7.58a3.025,3.025,0,0,0-.394-.018c-1.846,0-2.993,1.129-2.993,3.207V15.5h-1.721V6h1.648V7.6A3.626,3.626,0,0,1,140.3,5.913" transform="translate(-67.595 -2.957)" fill="#fff"/><path d="M153.685,12.955a3.244,3.244,0,0,1-2.079.663,2.71,2.71,0,0,1-3.011-2.974V5.429h-1.612V4.013H148.6V1.935h1.721V4.013h2.723V5.429h-2.723v5.143a1.4,1.4,0,0,0,1.487,1.595,2.165,2.165,0,0,0,1.344-.448Z" transform="translate(-73.492 -0.968)" fill="#fff"/><path d="M170.57,6.092l-4.6,10.447c-.842,2.007-1.936,2.634-3.387,2.634a3.565,3.565,0,0,1-2.437-.878l.734-1.29a2.432,2.432,0,0,0,1.7.7c.824,0,1.344-.375,1.809-1.468l.3-.664L160.5,6.092h1.791l3.315,7.6,3.279-7.6Z" transform="translate(-80.071 -3.046)" fill="#fff"/><path d="M194.713,2.58v9.981h-3.189V2.58h-3.745V0h10.715V2.58Z" transform="translate(-93.889 0)" fill="#fff"/><path d="M223.492,7.311c0,3.315-2.2,5.412-5.716,5.412-3.53,0-5.787-2.1-5.787-5.412V.036h3.189V7.311a2.527,2.527,0,0,0,2.616,2.741,2.47,2.47,0,0,0,2.527-2.741V.036h3.171Z" transform="translate(-105.994 -0.018)" fill="#fff"/><path d="M243.505,9.049H241v3.53h-3.19V.036h5.609c3.315,0,5.214,1.577,5.214,4.372a4.181,4.181,0,0,1-2.276,4.032l2.634,4.139h-3.62Zm-.089-2.509A1.907,1.907,0,0,0,245.6,4.515c0-1.308-.806-1.971-2.186-1.971H241v4Z" transform="translate(-118.904 -0.018)" fill="#fff"/><path d="M267.777,7.651,266.111,9.5v3.082h-3.189V.036h3.189v5.43l4.8-5.43H274.6l-4.659,5.2,4.963,7.346h-3.816Z" transform="translate(-131.461 -0.018)" fill="#fff"/><path d="M291.77,2.545V5.035h5.985V7.544H291.77v2.527H298.6v2.508H288.58V.036h9.82V2.545Z" transform="translate(-144.29 -0.018)" fill="#fff"/><path d="M317.282,12.579h-3.172V8.619L309.47.036h3.19L315.688,5.5,318.644.036h3.19L317.282,8.53Z" transform="translate(-154.735 -0.018)" fill="#fff"/><path d="M4.176,66.181l.192,9.265H0v-16.8H5.185L9.961,69.925l4.728-11.281h5.328v16.8H15.481l.216-9.673-4.129,9.673H8.209Z" transform="translate(0 -29.322)" fill="#fff"/><path d="M55.273,73.189H49.416l-.673,2.256h-4.8l5.592-16.8H55.32l5.593,16.8H55.968Zm-4.8-3.6h3.744L52.344,63.4Z" transform="translate(-21.972 -29.322)" fill="#fff"/><path d="M86.184,66.277l.12,9.169H81.744v-16.8h3.6L92.953,68.6l-.1-9.961h4.561v16.8h-4.08Z" transform="translate(-40.872 -29.322)" fill="#fff"/><path d="M128.281,73.189h-5.856l-.673,2.256h-4.8l5.593-16.8h5.784l5.593,16.8h-4.945Zm-4.8-3.6h3.744L125.353,63.4Z" transform="translate(-58.476 -29.322)" fill="#fff"/><path d="M151.9,66.661c0-6,2.833-8.737,8.521-8.737,3.432,0,5.689,1.128,6.768,3.816l-3.888,1.968a2.755,2.755,0,0,0-2.929-1.8c-2.352,0-3.6,1.177-3.6,4.8,0,3.72,1.32,4.9,3.7,4.9a2.684,2.684,0,0,0,2.928-2.352h-2.928V65.7h7.272v9.385h-3.288l-.288-1.9a5.122,5.122,0,0,1-4.632,2.257c-4.68,0-7.633-2.857-7.633-8.785" transform="translate(-75.953 -28.962)" fill="#fff"/><path d="M189.561,58.644h13.273v3.72H194.29v2.712h7.344v3.769H194.29V71.7h8.784v3.744H189.561Z" transform="translate(-94.781 -29.322)" fill="#fff"/><path d="M226.445,66.181l.193,9.265h-4.369v-16.8h5.185l4.776,11.281,4.728-11.281h5.329v16.8H237.75l.216-9.673-4.129,9.673h-3.36Z" transform="translate(-111.134 -29.322)" fill="#fff"/><path d="M269.414,58.644h13.273v3.72h-8.545v2.712h7.345v3.769h-7.345V71.7h8.784v3.744H269.414Z" transform="translate(-134.707 -29.322)" fill="#fff"/><path d="M306.562,66.277l.12,9.169h-4.56v-16.8h3.6l7.608,9.961-.1-9.961H317.8v16.8h-4.08Z" transform="translate(-151.061 -29.322)" fill="#fff"/><path d="M352.273,58.644v4.08H347.3V75.446h-4.824V62.725h-4.969v-4.08Z" transform="translate(-168.756 -29.322)" fill="#fff"/><path d="M94.153,114.724v3.985H81.12v-16.8h4.873v12.817Z" transform="translate(-40.56 -50.954)" fill="#fff"/><path d="M112.432,101.907h13.273v3.72H117.16v2.712H124.5v3.768H117.16v2.856h8.785v3.745H112.432Z" transform="translate(-56.216 -50.953)" fill="#fff"/><path d="M158.626,101.907v4.08h-4.969v12.721h-4.824V105.987h-4.968v-4.08Z" transform="translate(-71.932 -50.953)" fill="#fff"/><path d="M193.108,101.907v4.08H188.14v12.721h-4.824V105.987h-4.968v-4.08Z" transform="translate(-89.174 -50.953)" fill="#fff"/><path d="M225.9,105.987v-4.08H212.885v4.08h4.093v8.641h-4.093v4.08H225.9v-4.08H221.8v-8.641Z" transform="translate(-106.443 -50.953)" fill="#fff"/><path d="M248.684,109.539l.12,9.169h-4.561v-16.8h3.6l7.609,9.961-.1-9.961h4.561v16.8h-4.08Z" transform="translate(-122.122 -50.953)" fill="#fff"/><path d="M279.6,109.924c0-6,2.833-8.737,8.521-8.737,3.432,0,5.689,1.128,6.768,3.816l-3.888,1.969a2.755,2.755,0,0,0-2.929-1.8c-2.352,0-3.6,1.177-3.6,4.8,0,3.72,1.32,4.9,3.7,4.9a2.684,2.684,0,0,0,2.928-2.352h-2.928v-3.552h7.272v9.385h-3.289l-.288-1.9a5.122,5.122,0,0,1-4.632,2.257c-4.68,0-7.633-2.856-7.633-8.785" transform="translate(-139.802 -50.594)" fill="#fff"/><path d="M325.943,106.516a3.688,3.688,0,0,0-3.409-1.752c-1.488,0-2.112.6-2.112,1.392,0,.816.551,1.344,2.112,1.68l1.536.336c4.2.912,5.353,2.665,5.353,4.9,0,3.385-2.424,5.641-7.152,5.641-3.192,0-5.737-1.176-6.865-3.312l3.024-2.185a4.115,4.115,0,0,0,3.84,2.136c1.656,0,2.664-.528,2.664-1.488,0-.84-.432-1.176-1.944-1.56l-2.208-.552c-3.672-.912-4.753-2.952-4.753-5.016,0-3.24,2.4-5.545,6.6-5.545,2.664,0,5.136.936,6.456,3.241Z" transform="translate(-157.703 -50.594)" fill="#fff"/><path d="M34.964,111.119c1.982,1.842,2.8,4.014,4.33,4.164a4.021,4.021,0,0,0,1.266-.068l0,3.192a6.878,6.878,0,0,1-2.015.3c-1.784,0-2.954-.371-4.781-3.049a19.263,19.263,0,0,0-3.766-4.244c-1.249,0-2.334.814-2.334,1.789,0,1.265,1.031,2.256,2.741,2.256a4.2,4.2,0,0,0,1.648-.286v3.037a5.87,5.87,0,0,1-2.691.5c-3.333,0-5.762-1.965-5.762-5.195a5.289,5.289,0,0,1,3.618-4.962,4.5,4.5,0,0,1-1.4-3.127c0-2.61,2.594-4.239,5.668-4.239a6.874,6.874,0,0,1,3.011.612v3.073a5.7,5.7,0,0,0-2.629-.652c-.869,0-1.737.516-1.737,1.25,0,.75.678,1.492,1.873,2.306h7.839l-.44,3.343Z" transform="translate(-11.798 -50.594)" fill="#fff"/></g></g></svg>