<svg xmlns="http://www.w3.org/2000/svg" width="166.221" height="63.221" viewBox="0 0 166.221 63.221"><g transform="translate(0.5 0.5)"><path d="M26.805,50.237V34.127h7.062v16.11c0,3.77,2.421,6.07,5.793,6.07,3.334,0,5.6-2.3,5.6-6.07V34.127h7.023v16.11c0,7.341-4.88,11.984-12.659,11.984C31.8,62.221,26.805,57.578,26.805,50.237ZM72.14,61.9l-4.128-7.819H62.458V61.9H55.393V34.125h9.812V6.745h3.651v3.334a8.952,8.952,0,0,1,7.5-3.532c6.15,0,10.635,4.286,10.635,10.714,0,6.467-4.485,10.754-10.635,10.754a8.977,8.977,0,0,1-7.34-3.413v9.556c6.6.366,10.346,3.806,10.346,9.65,0,4.247-1.786,7.3-5.041,8.93L80.155,61.9ZM62.458,48.53h5.356c3.056,0,4.84-1.548,4.84-4.485,0-2.9-1.784-4.364-4.84-4.364H62.458Zm6.518-31.269c0,4.485,3.054,7.42,7.063,7.42,4.046,0,7.1-2.935,7.1-7.42,0-4.445-3.056-7.38-7.1-7.38C72.03,9.881,68.976,12.816,68.976,17.261ZM111.614,61.9V34.126h21.744v5.554H118.677V45.2h13.254v5.557H118.677v5.594h15.118V61.9Zm33.408,0v-8.77L134.744,34.126h7.063l6.705,12.1,6.549-12.1h7.063L152.045,52.935V61.9Zm-43.725,0L93.956,50.99l-3.691,4.088V61.9H83.2V34.126h7.063V46.15L100.9,34.126h8.174L98.758,45.634,109.748,61.9Zm-93,0V39.8H0V34.086H23.728V39.8H15.356V61.9ZM141.858,33.768l1.627-2.858a5.384,5.384,0,0,0,3.771,1.548c1.825,0,2.977-.834,4.006-3.253l.675-1.468L142.652,6.745h3.969l7.341,16.824,7.261-16.824h3.731l-10.2,23.135c-1.866,4.443-4.284,5.832-7.5,5.832A7.9,7.9,0,0,1,141.858,33.768Zm-11-12.339V9.881h-3.57V6.745h3.57v-4.6h3.81v4.6H140.7V9.881H134.67V21.27c0,2.26,1.191,3.53,3.293,3.53a4.8,4.8,0,0,0,2.977-.992l1.191,2.739a7.188,7.188,0,0,1-4.6,1.468C133.281,28.015,130.86,25.673,130.86,21.429ZM89.41,17.261A10.3,10.3,0,0,1,99.965,6.547c6.072,0,10.4,4.363,10.4,10.833,0,.318-.039.794-.079,1.151H93.22c.476,3.689,3.453,6.149,7.618,6.149a7.855,7.855,0,0,0,6.073-2.54l2.1,2.461a10.551,10.551,0,0,1-8.293,3.413C93.934,28.015,89.41,23.53,89.41,17.261Zm3.81-1.468h13.493a6.789,6.789,0,0,0-13.493,0ZM39.389,17.261c0-6.269,4.642-10.714,10.952-10.714s10.913,4.445,10.913,10.714-4.6,10.754-10.913,10.754S39.389,23.53,39.389,17.261Zm3.848,0c0,4.485,3.056,7.42,7.1,7.42s7.063-2.935,7.063-7.42-3.017-7.38-7.063-7.38S43.237,12.776,43.237,17.261Zm70.993,10.516V6.745h3.652v3.533c1.349-2.461,3.967-3.731,7.658-3.731v3.691a6.756,6.756,0,0,0-.873-.04c-4.086,0-6.626,2.5-6.626,7.1V27.777Zm-87.272,0V6.745h3.651v3.533c1.35-2.461,3.967-3.731,7.658-3.731v3.691a6.758,6.758,0,0,0-.873-.04c-4.086,0-6.626,2.5-6.626,7.1V27.777ZM.9,27.777V0H11.731c7.221,0,11.588,3.652,11.588,9.682s-4.366,9.682-11.588,9.682H4.867v8.412ZM4.867,15.911h6.745c5.078,0,7.738-2.26,7.738-6.229s-2.659-6.229-7.738-6.229H4.867Z" fill="#fff" stroke="rgba(0,0,0,0)" stroke-miterlimit="10" stroke-width="1"/></g></svg>