<svg xmlns="http://www.w3.org/2000/svg" width="221.221" height="126" viewBox="0 0 221.221 126"><g transform="translate(0.5 0.5)"><path d="M124.469,116.306V105.4h3.588v10.764c0,3.974,1.794,5.687,4.913,5.687s4.886-1.713,4.886-5.687V105.4h3.533v10.9c0,5.63-3.175,8.694-8.446,8.694C127.642,125,124.469,121.936,124.469,116.306Zm-24.614-1.244c0-5.714,4.417-9.937,10.407-9.937s10.407,4.2,10.407,9.937S116.251,125,110.261,125,99.855,120.776,99.855,115.062Zm3.616,0a6.79,6.79,0,1,0,6.79-6.79A6.586,6.586,0,0,0,103.471,115.062ZM57.7,115.2c0-5.908,4.415-10.075,10.46-10.075a9.982,9.982,0,0,1,7.757,3.147l-2.263,2.207a7.168,7.168,0,0,0-5.327-2.207,6.637,6.637,0,0,0-7.012,6.9,6.342,6.342,0,0,0,6.542,6.762,8.138,8.138,0,0,0,4.856-1.518V117.8H67.856v-2.954h8.251v9.881H73.153v-1.132A9.842,9.842,0,0,1,67.524,125C62.28,125,57.7,121.521,57.7,115.2Zm88.382,9.521V105.4h7.949c5.079,0,8.226,2.6,8.226,6.873,0,4.25-3.147,6.873-8.226,6.873h-4.361v5.575Zm3.588-8.613h4.2c3.147,0,4.775-1.408,4.775-3.836s-1.628-3.836-4.775-3.836h-4.2ZM93.13,124.724l-3.948-5.658a6.621,6.621,0,0,1-.744.028H84.077v5.63H80.488V105.4h7.95c5.078,0,8.225,2.595,8.225,6.871a6.181,6.181,0,0,1-4.113,6.1l4.444,6.347Zm-9.053-8.584h4.2c3.147,0,4.775-1.435,4.775-3.864s-1.628-3.836-4.775-3.836h-4.2ZM35.743,66.986V45.5h9.418V66.986c0,5.026,3.28,8.1,7.724,8.1s7.461-3.069,7.461-8.1V45.5h9.365V66.986c0,9.788-6.455,15.978-16.878,15.978S35.743,76.774,35.743,66.986ZM148.827,82.543V45.5h29v7.408H158.246v7.353h17.673v7.409H158.246v7.461h20.16v7.408Zm44.546,0V70.848L179.669,45.5h9.418l8.942,16.14L206.76,45.5h9.418l-13.44,25.082V82.543Zm-182.315,0V53.07H0V45.451H31.641V53.07H20.477V82.542Zm124.013,0-9.79-14.549-4.92,5.448v9.1h-9.419V45.5h9.419V61.535L134.542,45.5h10.9L131.684,60.848l14.657,21.694Zm-38.88,0-5.5-10.423H83.28V82.541H73.861V45.5H86.944V8.993h4.869v4.445a11.947,11.947,0,0,1,10-4.71c8.2,0,14.179,5.662,14.179,14.287s-5.977,14.338-14.179,14.338a11.976,11.976,0,0,1-9.789-4.55V45.549c8.8.489,13.8,5.072,13.8,12.865,0,5.66-2.382,9.735-6.721,11.905l7.779,12.222ZM83.283,64.71h7.143c4.073,0,6.455-2.118,6.455-5.979S94.5,52.91,90.426,52.91H83.283Zm8.69-41.694c0,5.979,4.02,9.895,9.417,9.895s9.472-3.969,9.472-9.895-4.073-9.844-9.472-9.844C96.047,13.173,91.974,17.035,91.974,23.017Zm97.186,22.012,2.169-3.809a7.17,7.17,0,0,0,5.026,2.063c2.434,0,3.967-1.112,5.344-4.339h0l.9-1.957L190.22,9h5.29L205.3,31.431,214.981,9h4.973l-13.6,30.846c-2.489,5.926-5.715,7.778-10,7.778A10.526,10.526,0,0,1,189.159,45.029ZM119.221,23.017c0-8.308,5.979-14.287,14.075-14.287v0c8.1,0,13.862,5.82,13.862,14.445,0,.423-.053,1.057-.1,1.533H124.3c.636,4.922,4.6,8.2,10.159,8.2a10.469,10.469,0,0,0,8.1-3.386l2.8,3.281c-2.54,2.961-6.4,4.55-11.057,4.55C125.253,37.356,119.221,31.324,119.221,23.017Zm5.079-1.959h17.989a9.051,9.051,0,0,0-17.989,0Zm50.191,7.514v-15.4h-4.762V9h4.762V2.858h5.079V9h8.042v4.18h-8.042V28.362c0,3.014,1.589,4.707,4.392,4.707a6.408,6.408,0,0,0,3.967-1.321l1.589,3.65a9.582,9.582,0,0,1-6.138,1.957C177.718,37.354,174.491,34.234,174.491,28.572ZM52.522,23.015c0-8.361,6.192-14.285,14.6-14.285s14.551,5.924,14.551,14.285-6.138,14.34-14.551,14.34S52.522,31.376,52.522,23.015Zm5.133,0c0,5.981,4.073,9.895,9.472,9.895S76.544,29,76.544,23.017s-4.021-9.842-9.418-9.842S57.654,17.037,57.654,23.017Zm94.662,14.021V9h4.869V13.7c1.8-3.28,5.29-4.975,10.212-4.975v4.922a9.008,9.008,0,0,0-1.165-.053c-5.449,0-8.835,3.333-8.835,9.471V37.038Zm-116.37,0V9h4.869V13.7c1.8-3.28,5.29-4.975,10.212-4.975v4.922a9.009,9.009,0,0,0-1.165-.053c-5.449,0-8.835,3.333-8.835,9.471V37.038Zm-34.748,0V0H15.643c9.629,0,15.451,4.87,15.451,12.911S25.273,25.822,15.643,25.822H6.489V37.038ZM6.491,21.217h9c6.771,0,10.316-3.016,10.316-8.308S22.259,4.6,15.486,4.6h-9Zm168,7.355v0Z" transform="translate(0 0)" fill="#fff" stroke="rgba(0,0,0,0)" stroke-miterlimit="10" stroke-width="1"/></g></svg>