<svg xmlns="http://www.w3.org/2000/svg" width="166.221" height="94.744" viewBox="0 0 166.221 94.744"><g transform="translate(0.5 0.5)"><path d="M74.559,86.3c0-4.322,3.31-7.442,7.836-7.442a7.473,7.473,0,0,1,5.81,2.357l-1.7,1.654a5.373,5.373,0,0,0-3.991-1.654,5.088,5.088,0,1,0-.02,10.172,5.839,5.839,0,0,0,2.977-.745V86.137h2.543v5.768a9.163,9.163,0,0,1-5.665,1.839C77.869,93.744,74.559,90.624,74.559,86.3ZM61.8,93.538V79.067H72.368v2.254H64.49v3.761h6.99v2.212H64.49v3.991h8.167v2.253Zm45.234,0V79.066h2.688v12.2h7.568v2.273Zm-57.619,0V79.066h2.688v12.2h7.567v2.273Zm52.967,0-1.449-3.35H93.7l-1.427,3.35H89.5l6.514-14.472h2.646L105.2,93.537ZM94.612,88.08h5.438l-2.73-6.326ZM26.805,50.235V34.127h7.063V50.235c0,3.771,2.461,6.07,5.793,6.07s5.6-2.3,5.6-6.07V34.127H52.28V50.235c0,7.343-4.842,11.986-12.657,11.986S26.805,57.578,26.805,50.235ZM111.614,61.9V34.126h21.744V39.68H118.677V45.2h13.254v5.557H118.677v5.6h15.117V61.9ZM8.293,61.9V39.8H0V34.087H23.728V39.8H15.356V61.9Zm93,0-7.34-10.913-3.691,4.089V61.9H83.2V34.125h7.062V46.149L100.9,34.125h8.174L98.757,45.633,109.749,61.9Zm43.725,0V53.133l-10.28-19.007h7.065l6.705,12.1,6.547-12.1h7.065L152.045,52.934V61.9Zm-72.884,0-4.128-7.814H62.456V61.9H55.391V34.123H65.2V6.743h3.652v3.334a8.954,8.954,0,0,1,7.5-3.532c6.15,0,10.635,4.247,10.635,10.714S82.5,28.013,76.355,28.013A8.981,8.981,0,0,1,69.014,24.6v9.557c6.6.366,10.348,3.8,10.348,9.647,0,4.247-1.786,7.3-5.04,8.93L80.154,61.9Zm-9.68-13.371h5.356c3.054,0,4.84-1.588,4.84-4.485s-1.786-4.364-4.84-4.364H62.459Zm6.516-31.269c0,4.485,3.017,7.422,7.063,7.422s7.1-2.977,7.1-7.422-3.057-7.381-7.1-7.381C72.03,9.878,68.974,12.776,68.974,17.259ZM141.859,33.77l1.627-2.858a5.381,5.381,0,0,0,3.771,1.548c1.823,0,2.975-.833,4.006-3.254h0l.675-1.469-9.285-20.99h3.967l7.34,16.824,7.261-16.824h3.731l-10.2,23.133c-1.865,4.446-4.286,5.832-7.5,5.832A7.9,7.9,0,0,1,141.859,33.77ZM89.41,17.261A10.3,10.3,0,0,1,99.966,6.547v0c6.073,0,10.4,4.364,10.4,10.834,0,.315-.039.792-.079,1.149H93.221c.476,3.691,3.451,6.152,7.618,6.152a7.855,7.855,0,0,0,6.073-2.54l2.1,2.461a10.559,10.559,0,0,1-8.293,3.411C93.935,28.015,89.41,23.492,89.41,17.261Zm3.81-1.469h13.49a6.787,6.787,0,0,0-13.49,0ZM39.387,17.261c0-6.271,4.644-10.714,10.952-10.714S61.252,10.99,61.252,17.261s-4.6,10.754-10.913,10.754S39.387,23.532,39.387,17.261Zm3.85,0c0,4.485,3.054,7.422,7.1,7.422S57.4,21.746,57.4,17.261s-3.014-7.38-7.063-7.38S43.237,12.778,43.237,17.261Zm87.623,4.165V9.881h-3.572V6.745h3.572v-4.6h3.81v4.6H140.7V9.878h-6.031V21.268c0,2.262,1.19,3.532,3.292,3.532a4.811,4.811,0,0,0,2.976-.992l1.191,2.738a7.2,7.2,0,0,1-4.6,1.467C133.282,28.013,130.86,25.673,130.86,21.426Zm-16.63,6.35V6.745h3.652v3.533c1.35-2.461,3.969-3.731,7.658-3.731v3.691a6.758,6.758,0,0,0-.873-.04c-4.086,0-6.626,2.5-6.626,7.1V27.776Zm-87.272,0V6.745h3.652v3.533c1.349-2.461,3.969-3.731,7.658-3.731v3.691a6.736,6.736,0,0,0-.873-.04c-4.086,0-6.626,2.5-6.626,7.1V27.776ZM.9,27.776V0H11.732c7.222,0,11.587,3.652,11.587,9.682s-4.366,9.682-11.587,9.682H4.867v8.412ZM4.867,15.911h6.745c5.078,0,7.737-2.262,7.737-6.231s-2.657-6.229-7.737-6.229H4.867Z" transform="translate(0)" fill="#fff" stroke="rgba(0,0,0,0)" stroke-miterlimit="10" stroke-width="1"/></g></svg>