<svg xmlns="http://www.w3.org/2000/svg" xmlns:xlink="http://www.w3.org/1999/xlink" width="314.776" height="26.756" viewBox="0 0 314.776 26.756"><defs><clipPath id="a"><rect width="314.776" height="26.756" fill="none"/></clipPath></defs><g transform="translate(0 0)" clip-path="url(#a)"><path d="M16.8,7.254c0,4.519-3.271,7.254-8.681,7.254H2.973v6.3H0V0H8.116C13.526,0,16.8,2.735,16.8,7.254m-2.973,0c0-2.973-1.992-4.667-5.8-4.667H2.973v9.335H8.027c3.8,0,5.8-1.694,5.8-4.668" transform="translate(0 0)" fill="#ea2427"/><path d="M47.518,9.811v2.765a5,5,0,0,0-.654-.03c-3.062,0-4.965,1.873-4.965,5.321v7.848H39.045V9.959H41.78v2.646c1.011-1.843,2.973-2.795,5.738-2.795" transform="translate(-19.522 -4.905)" fill="#ea2427"/><path d="M57.674,17.838a7.84,7.84,0,0,1,8.2-8.027,7.817,7.817,0,0,1,8.176,8.027,7.84,7.84,0,0,1-8.176,8.057,7.864,7.864,0,0,1-8.2-8.057m13.5,0a5.311,5.311,0,1,0-10.613,0,5.312,5.312,0,1,0,10.613,0" transform="translate(-28.837 -4.905)" fill="#ea2427"/><path d="M112.678,17.838a7.655,7.655,0,0,1-7.967,8.057,6.729,6.729,0,0,1-5.5-2.557v8.146H96.357V9.959h2.735v2.5a6.711,6.711,0,0,1,5.619-2.646,7.647,7.647,0,0,1,7.967,8.027m-2.883,0a5.311,5.311,0,1,0-10.614,0,5.313,5.313,0,1,0,10.614,0" transform="translate(-48.179 -4.905)" fill="#ea2427"/><path d="M148.264,18.789H135.48c.357,2.764,2.587,4.608,5.708,4.608a5.882,5.882,0,0,0,4.548-1.9l1.576,1.843a7.908,7.908,0,0,1-6.213,2.557c-5.084,0-8.473-3.36-8.473-8.057a7.717,7.717,0,0,1,7.908-8.027c4.549,0,7.789,3.271,7.789,8.116,0,.238-.03.595-.06.863M135.48,16.738h10.108a5.086,5.086,0,0,0-10.108,0" transform="translate(-66.313 -4.905)" fill="#ea2427"/><path d="M178.29,9.811v2.765a5,5,0,0,0-.654-.03c-3.062,0-4.965,1.873-4.965,5.321v7.848h-2.854V9.959h2.735v2.646c1.011-1.843,2.973-2.795,5.738-2.795" transform="translate(-84.909 -4.905)" fill="#ea2427"/><path d="M200.5,21.494a5.384,5.384,0,0,1-3.448,1.1c-3.181,0-4.995-1.754-4.995-4.935V9.008h-2.676V6.659h2.676V3.211h2.854V6.659h4.519V9.008h-4.519v8.533a2.322,2.322,0,0,0,2.468,2.646,3.592,3.592,0,0,0,2.229-.743Z" transform="translate(-94.692 -1.605)" fill="#ea2427"/><path d="M228.52,10.108,220.879,27.44c-1.4,3.33-3.21,4.371-5.619,4.371a5.915,5.915,0,0,1-4.043-1.457l1.219-2.14a4.03,4.03,0,0,0,2.824,1.16c1.368,0,2.23-.624,3-2.438l.506-1.1-6.957-15.727h2.973l5.5,12.605,5.441-12.605Z" transform="translate(-105.608 -5.054)" fill="#ea2427"/><path d="M268.576,4.281V20.841h-5.292V4.281H257.07V0h17.779V4.281Z" transform="translate(-128.535 0)" fill="#ea2427"/><path d="M316.323,12.13c0,5.5-3.656,8.978-9.484,8.978-5.857,0-9.6-3.479-9.6-8.978V.06h5.292V12.13a4.193,4.193,0,0,0,4.341,4.548c2.5,0,4.192-1.724,4.192-4.548V.06h5.262Z" transform="translate(-148.618 -0.03)" fill="#ea2427"/><path d="M349.528,15.013h-4.162V20.87h-5.292V.059h9.306c5.5,0,8.651,2.616,8.651,7.254,0,3.181-1.338,5.47-3.776,6.689l4.37,6.868H352.62Zm-.148-4.162c2.289,0,3.627-1.16,3.627-3.359,0-2.17-1.338-3.27-3.627-3.27h-4.014v6.63Z" transform="translate(-170.037 -0.029)" fill="#ea2427"/><path d="M389.8,12.695l-2.765,3.062V20.87h-5.291V.06h5.291V9.068L395,.06h6.125L393.4,8.681l8.236,12.189H395.3Z" transform="translate(-190.872 -0.03)" fill="#ea2427"/><path d="M429.607,4.222V8.354h9.93v4.162h-9.93v4.192h11.327V20.87H424.315V.06h16.292V4.222Z" transform="translate(-212.157 -0.03)" fill="#ea2427"/><path d="M471.935,20.87h-5.262V14.3L458.973.06h5.292l5.024,9.067L474.195.06h5.292l-7.552,14.091Z" transform="translate(-229.487 -0.03)" fill="#ea2427"/><path d="M504.539,39.23a1.433,1.433,0,0,1-1.07-.457,1.538,1.538,0,0,1-.442-1.113,1.513,1.513,0,1,1,3.025,0,1.542,1.542,0,0,1-.442,1.113,1.436,1.436,0,0,1-1.071.457" transform="translate(-251.514 -18.059)" fill="#ea2427"/><path d="M520.9,27.069a8,8,0,0,1-3.983-.985,7.173,7.173,0,0,1-2.754-2.712,7.746,7.746,0,0,1-1-3.954,7.725,7.725,0,0,1,1-3.968,7.105,7.105,0,0,1,2.754-2.683A8.094,8.094,0,0,1,520.9,11.8a7.862,7.862,0,0,1,3.454.742,5.6,5.6,0,0,1,2.427,2.226l-1.513,1.028a4.757,4.757,0,0,0-1.913-1.685,6.018,6.018,0,0,0-5.366.186,5.291,5.291,0,0,0-2.027,2.041,6.163,6.163,0,0,0-.742,3.083,6.16,6.16,0,0,0,.742,3.083,5.284,5.284,0,0,0,2.027,2.041,6.018,6.018,0,0,0,5.366.185,4.818,4.818,0,0,0,1.913-1.656l1.513,1.028a5.741,5.741,0,0,1-2.427,2.213,7.731,7.731,0,0,1-3.454.757" transform="translate(-256.582 -5.898)" fill="#ea2427"/><path d="M550.681,27.069a7.7,7.7,0,0,1-3.911-.985,7.236,7.236,0,0,1-2.712-2.726,7.767,7.767,0,0,1-1-3.939,7.728,7.728,0,0,1,1-3.968,7.192,7.192,0,0,1,2.712-2.684,8.4,8.4,0,0,1,7.865.014,7.2,7.2,0,0,1,2.712,2.684,7.744,7.744,0,0,1,.985,3.954,7.838,7.838,0,0,1-.985,3.953,7.108,7.108,0,0,1-2.727,2.712,7.86,7.86,0,0,1-3.939.985m0-1.8a5.644,5.644,0,0,0,2.883-.728,5.225,5.225,0,0,0,1.984-2.055,6.284,6.284,0,0,0,.727-3.069,6.266,6.266,0,0,0-.727-3.083,5.254,5.254,0,0,0-1.984-2.041,5.961,5.961,0,0,0-5.71,0,5.35,5.35,0,0,0-2,2.041,6.157,6.157,0,0,0-.743,3.083,6.175,6.175,0,0,0,.743,3.069,5.354,5.354,0,0,0,1.984,2.055,5.51,5.51,0,0,0,2.84.728" transform="translate(-271.53 -5.898)" fill="#ea2427"/><path d="M598.72,11.8a6.856,6.856,0,0,1,3.182.7,4.914,4.914,0,0,1,2.113,2.127,7.638,7.638,0,0,1,.757,3.6v8.707h-2.027V18.419a5.089,5.089,0,0,0-1.127-3.582,4.131,4.131,0,0,0-3.183-1.214,5.3,5.3,0,0,0-2.669.642,4.327,4.327,0,0,0-1.742,1.855,6.425,6.425,0,0,0-.614,2.927v7.879h-2.027V18.419a5.05,5.05,0,0,0-1.142-3.582,4.178,4.178,0,0,0-3.2-1.214,5.325,5.325,0,0,0-2.655.642,4.3,4.3,0,0,0-1.755,1.855,6.42,6.42,0,0,0-.613,2.927v7.879h-2.027V11.938h1.941v4.054l-.314-.714a5.359,5.359,0,0,1,2.213-2.555,6.825,6.825,0,0,1,3.611-.927,6.276,6.276,0,0,1,3.74,1.1,5.144,5.144,0,0,1,2,3.3l-.8-.313a5.907,5.907,0,0,1,2.327-2.955A7,7,0,0,1,598.72,11.8" transform="translate(-289.996 -5.898)" fill="#ea2427"/></g></svg>