<svg xmlns="http://www.w3.org/2000/svg" width="85.765" height="94.931" viewBox="0 0 85.765 94.931"><g transform="translate(-466.921 -1244.5)"><path d="M74.6,35.591l5.719,37.74-9.809-3.626L61.145,82.111l-16.331,7.9h-12.4l-8.152-2.894Z" transform="translate(469.426 1247)" fill="#f9f4eb"/><path d="M81.576,141,47.724,161.328l10.717,5.064s-17.408,23.3-40.872,2.718c0,0-6.655-6.478-8.571-20.409,0,0-4.771,24.344,6.909,34.017,0,0,2.6,6.04,17.131,10.712,6.645,2.136,27.71-5.679,37.376-19.726C80.221,159.454,81.576,141,81.576,141Z" transform="translate(461.402 1140.521)" fill="#ea2328"/><path d="M92.7,121.223H69.612l-4.425-2.855L63.37,91.374,86.47,88,92.7,93.451Z" transform="translate(420.429 1179.764)" fill="#ea2328"/><path d="M162.7,49.529l-16.448,9.344h-6.639L135.187,54.5,133.37,13.168,144.012,8.26,156.47,8l6.748,6.229Z" transform="translate(368.598 1239)" fill="#ea2328"/><g transform="translate(469.426 1247)"><path d="M233.862,21.689V51.144l3.636-1.285V22.682Z" transform="translate(-196.314 2.844)" fill="#f9f4eb"/><ellipse cx="14.535" cy="6.229" rx="14.535" ry="6.229" transform="translate(14.633 20.764)" fill="none" stroke="#48181c" stroke-linecap="round" stroke-linejoin="round" stroke-width="5"/><path d="M233.862,21.689V59.834L237.5,58.17v-35.2Z" transform="translate(-177.236 -18.136)" fill="#f9f4eb"/><path d="M64.37,95.5v10.382c0,3.442,6.507,6.229,14.535,6.229s14.535-2.788,14.535-6.229V95.5a10.9,10.9,0,0,0-8.2-5.785" transform="translate(-49.737 -68.504)" fill="none" stroke="#48181c" stroke-linecap="round" stroke-linejoin="round" stroke-width="5"/><line y1="13.756" transform="translate(43.704 37.376)" fill="none" stroke="#48181c" stroke-linecap="round" stroke-linejoin="round" stroke-width="5"/><path d="M195.8,72V82.382c0,3.138-5.414,5.734-12.456,6.167l-5.972.062" transform="translate(-133.407 -55.388)" fill="none" stroke="#48181c" stroke-linecap="round" stroke-linejoin="round" stroke-width="5"/><ellipse cx="14.535" cy="6.229" rx="14.535" ry="6.229" transform="translate(33.321 0)" fill="none" stroke="#48181c" stroke-linecap="round" stroke-linejoin="round" stroke-width="5"/><line y1="12.978" transform="translate(33.321 6.229)" fill="none" stroke="#48181c" stroke-linecap="round" stroke-linejoin="round" stroke-width="5"/><path d="M167.669,32V42.382c0,3.252-5.819,5.923-13.237,6.206l-2.492.008a31.126,31.126,0,0,1-9.816-1.555l-2.744-.766" transform="translate(-105.277 -25.771)" fill="none" stroke="#48181c" stroke-linecap="round" stroke-linejoin="round" stroke-width="5"/><line y1="13.237" transform="translate(62.392 26.994)" fill="none" stroke="#48181c" stroke-linecap="round" stroke-linejoin="round" stroke-width="5"/><path d="M13.6,123.371c.722-1.21-3.756,8.721-3.756,13.738a26.965,26.965,0,0,0,48.571,16.152L47.695,148.2,82.818,127l5.933,40.6-10.006-4.726a38.6,38.6,0,0,1-46.31,18.415A36.118,36.118,0,0,1,8.084,148.95c-.42-7.512.441-17.092,5.51-25.579Z" transform="translate(-7.991 -93.351)" fill="none" stroke="#48181c" stroke-linecap="round" stroke-linejoin="round" stroke-width="5"/><path d="M64.37,152v10.382c0,3.442,6.507,6.229,14.535,6.229,1.186,0,9.084,0,14.016-2.855" transform="translate(-49.737 -114.624)" fill="none" stroke="#48181c" stroke-linecap="round" stroke-linejoin="round" stroke-width="5"/></g></g></svg>